<?xml version="1.0" standalone="no"?>
<!DOCTYPE svg PUBLIC "-//W3C//DTD SVG 20010904//EN"
 "http://www.w3.org/TR/2001/REC-SVG-20010904/DTD/svg10.dtd">
<svg version="1.0" xmlns="http://www.w3.org/2000/svg"
 width="310.000000pt" height="404.000000pt" viewBox="0 0 310.000000 404.000000"
 preserveAspectRatio="xMidYMid meet">

<g transform="translate(0.000000,404.000000) scale(0.100000,-0.100000)"
fill="#000000" stroke="none">
<path d="M2765 3955 c-49 -30 -137 -75 -195 -101 -58 -25 -109 -50 -113 -54
-16 -14 326 -430 354 -430 8 0 24 145 44 385 17 204 18 255 8 255 -5 -1 -48
-25 -98 -55z"/>
<path d="M258 3945 c6 -115 34 -426 45 -508 l12 -88 45 53 c25 29 51 54 57 55
7 2 13 -63 18 -205 7 -190 9 -211 32 -262 14 -30 31 -71 38 -90 8 -19 45 -105
84 -190 53 -116 74 -154 86 -152 9 2 50 18 91 37 53 24 74 39 74 52 0 10 -9
144 -19 298 l-19 280 -92 158 c-51 87 -90 160 -88 163 3 2 -10 20 -28 40 -19
19 -34 40 -34 45 0 6 21 38 47 72 25 34 50 67 55 73 5 7 -30 27 -102 59 -60
26 -154 73 -207 104 l-98 56 3 -50z m342 -392 c0 -5 -130 -63 -149 -66 -9 -1
-23 -7 -31 -12 -8 -5 9 15 38 45 29 30 60 66 69 81 l16 27 29 -35 c15 -20 28
-38 28 -40z m0 -253 c0 -25 -18 -36 -26 -16 -8 21 3 49 16 41 5 -3 10 -15 10
-25z m160 -317 c0 -21 6 -50 14 -65 12 -23 12 -29 1 -38 -11 -9 -18 -5 -35 22
-22 37 -27 104 -7 111 24 10 27 7 27 -30z"/>
<path d="M2130 3919 c-41 -38 -80 -69 -87 -69 -7 0 -10 -6 -8 -12 3 -7 -22
-49 -55 -93 -33 -44 -60 -83 -60 -86 0 -8 124 16 223 42 l77 21 -2 122 -2 121
-3 -112 c-2 -62 -6 -113 -8 -113 -11 0 -145 93 -145 101 0 4 12 17 27 29 41
32 125 112 121 115 -2 2 -37 -28 -78 -66z"/>
<path d="M1530 3835 c-10 -13 -10 -19 3 -33 8 -9 17 -28 19 -42 l3 -25 13 23
c10 18 11 31 2 57 -13 39 -21 43 -40 20z"/>
<path d="M1864 3588 c-27 -39 -36 -72 -82 -326 -29 -156 -50 -287 -48 -291 11
-17 156 -112 164 -107 12 7 227 358 225 367 -1 3 -42 76 -90 160 -48 85 -97
173 -108 197 -11 23 -23 42 -26 42 -3 0 -19 -19 -35 -42z m60 -370 c-5 -13 -8
-34 -8 -48 0 -14 3 -35 8 -47 7 -21 4 -23 -30 -23 l-36 0 4 54 c5 60 20 86 50
86 16 0 18 -4 12 -22z"/>
<path d="M2497 3464 c-11 -11 -8 -44 3 -44 15 0 24 30 13 41 -5 5 -12 6 -16 3z"/>
<path d="M127 3294 c-11 -11 -8 -44 3 -44 15 0 24 30 13 41 -5 5 -12 6 -16 3z"/>
<path d="M2827 3094 c-11 -11 -8 -64 3 -64 6 0 13 7 17 16 7 18 -9 58 -20 48z"/>
<path d="M1184 3000 c-6 -6 -8 -24 -6 -40 3 -25 7 -28 18 -19 15 13 18 37 6
56 -6 9 -11 10 -18 3z"/>
<path d="M2566 2977 c-18 -13 -16 -26 49 -288 37 -151 111 -455 166 -677 54
-222 103 -421 109 -443 l11 -39 29 15 c17 9 30 20 30 24 0 10 -101 666 -124
806 -11 70 -38 146 -116 340 -56 138 -104 256 -107 263 -7 16 -25 15 -47 -1z"/>
<path d="M476 2884 c-5 -18 -3 -30 6 -35 9 -6 14 -1 16 17 5 38 -14 52 -22 18z"/>
<path d="M969 2886 c-12 -26 -5 -76 11 -76 6 0 10 8 10 18 0 10 6 27 14 38 10
13 11 23 4 31 -16 19 -27 16 -39 -11z"/>
<path d="M202 2469 c1 -13 8 -23 13 -21 15 3 12 35 -3 40 -9 3 -13 -3 -10 -19z"/>
<path d="M2507 2374 c-9 -18 -37 -50 -63 -72 l-46 -41 140 -318 c77 -175 157
-355 177 -400 l38 -82 28 15 c16 8 29 18 29 22 0 4 -61 189 -136 412 -74 223
-139 425 -143 450 l-7 45 -17 -31z"/>
<path d="M320 1887 c-30 -62 -91 -191 -138 -287 -185 -383 -170 -341 -177
-492 -5 -85 -4 -129 2 -123 5 6 64 100 130 210 131 218 114 174 258 655 13 41
26 82 30 91 4 12 -3 23 -23 38 l-29 20 -53 -112z"/>
<path d="M0 1643 c1 -27 1 -27 15 -9 19 25 19 36 0 36 -10 0 -15 -10 -15 -27z"/>
<path d="M2789 1224 c-85 -55 -160 -305 -189 -639 -17 -187 -18 -191 -39 -125
-24 75 -46 114 -77 139 -35 28 -66 27 -101 -3 -27 -23 -28 -28 -26 -108 2 -94
35 -219 101 -378 l40 -95 197 -3 c230 -3 198 -16 316 131 l79 98 0 285 0 285
-31 -18 c-17 -10 -51 -42 -75 -71 -24 -30 -44 -50 -44 -45 0 4 10 55 21 113
28 137 30 279 6 341 -34 89 -117 132 -178 93z"/>
<path d="M194 1027 l-141 -183 28 -110 c15 -60 43 -154 63 -208 20 -55 34
-102 31 -104 -2 -2 -17 22 -33 54 -25 49 -127 204 -135 204 -1 0 -1 -104 1
-232 l2 -231 38 -46 c20 -25 63 -72 95 -103 l59 -58 174 0 174 0 65 88 c90
123 189 290 227 386 26 67 32 95 33 161 0 65 -4 85 -20 107 -26 35 -80 61
-110 54 -67 -17 -135 -127 -196 -316 l-36 -115 -6 245 c-5 254 -16 333 -59
447 -22 60 -76 137 -98 140 -9 2 -73 -72 -156 -180z"/>
<path d="M1256 709 c-54 -10 -101 -21 -103 -23 -3 -2 0 -13 6 -24 19 -36 14
-109 -10 -133 -15 -15 -24 -18 -34 -9 -10 8 -15 8 -21 -2 -13 -21 -7 -103 11
-139 16 -32 93 -119 105 -119 3 0 4 17 2 38 -3 27 2 43 18 60 29 30 53 28 85
-10 22 -26 26 -39 23 -72 -3 -23 -6 -47 -9 -55 -3 -10 12 -18 46 -27 66 -18
65 -18 65 10 0 29 36 72 68 81 29 8 82 -42 82 -79 0 -31 2 -31 85 -10 60 15
64 18 54 37 -27 50 17 147 67 147 28 0 54 -35 54 -73 0 -24 2 -26 19 -18 30
17 80 99 87 146 6 45 -2 89 -15 80 -5 -2 -16 1 -26 9 -25 18 -33 108 -12 140
l16 24 -107 20 c-100 19 -108 19 -119 4 -33 -45 -111 -113 -140 -123 -54 -18
-125 31 -172 119 -6 12 -15 22 -19 21 -4 -1 -52 -9 -106 -20z m-16 -259 c0
-11 -4 -20 -10 -20 -5 0 -10 9 -10 20 0 11 5 20 10 20 6 0 10 -9 10 -20z"/>
</g>
</svg>
